<svg width="542" height="422" viewBox="0 0 542 422" fill="none" xmlns="http://www.w3.org/2000/svg">
<g filter="url(#filter0_d_128_32)">
<rect x="20" y="16" width="502" height="382" rx="10" fill="white"/>
</g>
<line x1="49" y1="163.5" x2="477" y2="163.5" stroke="#C4C4C4"/>
<line x1="49" y1="223.5" x2="477" y2="223.5" stroke="#C4C4C4"/>
<line x1="49" y1="283.5" x2="477" y2="283.5" stroke="#C4C4C4"/>
<line x1="49" y1="343.5" x2="477" y2="343.5" stroke="#C4C4C4"/>
<path d="M46.332 65.436C46.332 72.96 52.056 78.216 59.112 78.216C64.332 78.216 68.832 75.624 70.74 70.728H65.808C64.476 73.392 62.1 74.652 59.112 74.652C54.144 74.652 50.544 71.088 50.544 65.436C50.544 59.784 54.144 56.256 59.112 56.256C62.1 56.256 64.476 57.516 65.808 60.18H70.74C68.832 55.284 64.332 52.656 59.112 52.656C52.056 52.656 46.332 57.948 46.332 65.436ZM74.1758 67.992C74.1758 74.112 78.3158 78.324 83.4638 78.324C86.7758 78.324 89.1518 76.74 90.4118 75.048V78H94.5518V58.164H90.4118V61.044C89.1878 59.424 86.8838 57.84 83.5358 57.84C78.3158 57.84 74.1758 61.872 74.1758 67.992ZM90.4118 68.064C90.4118 72.348 87.4958 74.76 84.3998 74.76C81.3398 74.76 78.3878 72.276 78.3878 67.992C78.3878 63.708 81.3398 61.404 84.3998 61.404C87.4958 61.404 90.4118 63.816 90.4118 68.064ZM100.59 72.492C100.59 76.524 102.786 78 106.314 78H109.554V74.58H107.034C105.306 74.58 104.73 73.968 104.73 72.492V61.512H109.554V58.164H104.73V53.232H100.59V58.164H98.2502V61.512H100.59V72.492ZM111.969 67.992C111.969 74.112 116.109 78.324 121.257 78.324C124.569 78.324 126.945 76.74 128.205 75.048V78H132.345V58.164H128.205V61.044C126.981 59.424 124.677 57.84 121.329 57.84C116.109 57.84 111.969 61.872 111.969 67.992ZM128.205 68.064C128.205 72.348 125.289 74.76 122.193 74.76C119.133 74.76 116.181 72.276 116.181 67.992C116.181 63.708 119.133 61.404 122.193 61.404C125.289 61.404 128.205 63.816 128.205 68.064ZM136.367 67.992C136.367 74.112 140.507 78.324 145.727 78.324C148.967 78.324 151.343 76.704 152.603 75.012V78.324C152.603 82.284 150.227 84.228 147.059 84.228C144.215 84.228 142.019 82.824 141.407 80.772H137.339C137.843 85.164 141.767 87.792 147.059 87.792C153.251 87.792 156.743 83.724 156.743 78.324V58.164H152.603V61.044C151.379 59.352 148.967 57.84 145.727 57.84C140.507 57.84 136.367 61.872 136.367 67.992ZM152.603 68.064C152.603 72.348 149.687 74.76 146.591 74.76C143.531 74.76 140.579 72.276 140.579 67.992C140.579 63.708 143.531 61.404 146.591 61.404C149.687 61.404 152.603 63.816 152.603 68.064ZM181.034 68.064C181.034 61.836 176.57 57.84 170.918 57.84C165.266 57.84 160.802 61.836 160.802 68.064C160.802 74.292 165.086 78.324 170.738 78.324C176.426 78.324 181.034 74.292 181.034 68.064ZM164.978 68.064C164.978 63.564 167.75 61.404 170.846 61.404C173.906 61.404 176.822 63.564 176.822 68.064C176.822 72.564 173.798 74.76 170.738 74.76C167.642 74.76 164.978 72.564 164.978 68.064ZM189.195 67.56C189.195 63.348 191.067 62.088 194.091 62.088H195.135V57.84C192.327 57.84 190.347 59.064 189.195 61.044V58.164H185.091V78H189.195V67.56ZM198.907 78H203.011V58.164H198.907V78ZM200.995 55.536C202.435 55.536 203.587 54.384 203.587 52.908C203.587 51.432 202.435 50.28 200.995 50.28C199.519 50.28 198.367 51.432 198.367 52.908C198.367 54.384 199.519 55.536 200.995 55.536ZM216.751 61.296C219.811 61.296 222.223 63.24 222.295 66.3H211.315C211.747 63.168 213.979 61.296 216.751 61.296ZM226.039 72.096H221.611C220.855 73.644 219.451 74.868 216.931 74.868C213.907 74.868 211.567 72.888 211.279 69.612H226.435C226.543 68.928 226.579 68.28 226.579 67.596C226.579 61.764 222.583 57.84 216.931 57.84C211.063 57.84 207.031 61.836 207.031 68.064C207.031 74.292 211.243 78.324 216.931 78.324C221.791 78.324 224.923 75.552 226.039 72.096ZM245.414 72.456C245.198 65.292 234.002 67.524 234.002 63.528C234.002 62.196 235.154 61.296 237.35 61.296C239.582 61.296 240.914 62.484 241.058 64.212H245.162C244.946 60.252 241.994 57.84 237.494 57.84C232.814 57.84 229.862 60.396 229.862 63.564C229.862 70.836 241.382 68.604 241.382 72.492C241.382 73.86 240.122 74.868 237.746 74.868C235.478 74.868 233.93 73.536 233.786 71.916H229.538C229.718 75.516 233.066 78.324 237.818 78.324C242.498 78.324 245.414 75.804 245.414 72.456Z" fill="black"/>
<path d="M104.702 135.164H108.05V146H110.102V135.164H113.432V133.49H104.702V135.164ZM117.562 140.78C117.562 138.674 118.498 138.044 120.01 138.044H120.532V135.92C119.128 135.92 118.138 136.532 117.562 137.522V136.082H115.51V146H117.562V140.78ZM121.734 140.996C121.734 144.056 123.804 146.162 126.378 146.162C128.034 146.162 129.222 145.37 129.852 144.524V146H131.922V136.082H129.852V137.522C129.24 136.712 128.088 135.92 126.414 135.92C123.804 135.92 121.734 137.936 121.734 140.996ZM129.852 141.032C129.852 143.174 128.394 144.38 126.846 144.38C125.316 144.38 123.84 143.138 123.84 140.996C123.84 138.854 125.316 137.702 126.846 137.702C128.394 137.702 129.852 138.908 129.852 141.032ZM133.448 136.082L137.21 146H139.658L143.438 136.082H141.26L138.452 144.164L135.644 136.082H133.448ZM149.165 137.648C150.695 137.648 151.901 138.62 151.937 140.15H146.447C146.663 138.584 147.779 137.648 149.165 137.648ZM153.809 143.048H151.595C151.217 143.822 150.515 144.434 149.255 144.434C147.743 144.434 146.573 143.444 146.429 141.806H154.007C154.061 141.464 154.079 141.14 154.079 140.798C154.079 137.882 152.081 135.92 149.255 135.92C146.321 135.92 144.305 137.918 144.305 141.032C144.305 144.146 146.411 146.162 149.255 146.162C151.685 146.162 153.251 144.776 153.809 143.048ZM156.098 146H158.15V132.68H156.098V146Z" fill="#343434"/>
<path d="M113.792 262.454C113.792 257.882 107.168 259.646 107.168 256.82C107.168 255.614 108.086 255.038 109.274 255.074C110.57 255.11 111.308 255.884 111.38 256.73H113.648C113.468 254.588 111.776 253.328 109.382 253.328C106.826 253.328 105.08 254.696 105.08 256.892C105.08 261.5 111.722 259.538 111.722 262.562C111.722 263.624 110.912 264.398 109.472 264.398C108.05 264.398 107.33 263.57 107.24 262.544H105.044C105.044 264.758 106.97 266.126 109.472 266.126C112.262 266.126 113.792 264.326 113.792 262.454ZM116.537 263.246C116.537 265.262 117.635 266 119.399 266H121.019V264.29H119.759C118.895 264.29 118.607 263.984 118.607 263.246V257.756H121.019V256.082H118.607V253.616H116.537V256.082H115.367V257.756H116.537V263.246ZM132.361 261.032C132.361 257.918 130.129 255.92 127.303 255.92C124.477 255.92 122.245 257.918 122.245 261.032C122.245 264.146 124.387 266.162 127.213 266.162C130.057 266.162 132.361 264.146 132.361 261.032ZM124.333 261.032C124.333 258.782 125.719 257.702 127.267 257.702C128.797 257.702 130.255 258.782 130.255 261.032C130.255 263.282 128.743 264.38 127.213 264.38C125.665 264.38 124.333 263.282 124.333 261.032ZM136.441 260.78C136.441 258.674 137.377 258.044 138.889 258.044H139.411V255.92C138.007 255.92 137.017 256.532 136.441 257.522V256.082H134.389V266H136.441V260.78ZM141.297 266H143.349V256.082H141.297V266ZM142.341 254.768C143.061 254.768 143.637 254.192 143.637 253.454C143.637 252.716 143.061 252.14 142.341 252.14C141.603 252.14 141.027 252.716 141.027 253.454C141.027 254.192 141.603 254.768 142.341 254.768ZM150.219 257.648C151.749 257.648 152.955 258.62 152.991 260.15H147.501C147.717 258.584 148.833 257.648 150.219 257.648ZM154.863 263.048H152.649C152.271 263.822 151.569 264.434 150.309 264.434C148.797 264.434 147.627 263.444 147.483 261.806H155.061C155.115 261.464 155.133 261.14 155.133 260.798C155.133 257.882 153.135 255.92 150.309 255.92C147.375 255.92 145.359 257.918 145.359 261.032C145.359 264.146 147.465 266.162 150.309 266.162C152.739 266.162 154.305 264.776 154.863 263.048ZM164.551 263.228C164.443 259.646 158.845 260.762 158.845 258.764C158.845 258.098 159.421 257.648 160.519 257.648C161.635 257.648 162.301 258.242 162.373 259.106H164.425C164.317 257.126 162.841 255.92 160.591 255.92C158.251 255.92 156.775 257.198 156.775 258.782C156.775 262.418 162.535 261.302 162.535 263.246C162.535 263.93 161.905 264.434 160.717 264.434C159.583 264.434 158.809 263.768 158.737 262.958H156.613C156.703 264.758 158.377 266.162 160.753 266.162C163.093 266.162 164.551 264.902 164.551 263.228Z" fill="#343434"/>
<path d="M109.436 313.49H105.35V326H109.436C113.45 326 116.078 323.642 116.078 319.79C116.078 315.92 113.45 313.49 109.436 313.49ZM107.402 324.326V315.164H109.436C112.388 315.164 113.972 316.928 113.972 319.79C113.972 322.634 112.388 324.326 109.436 324.326H107.402ZM122.288 317.648C123.818 317.648 125.024 318.62 125.06 320.15H119.57C119.786 318.584 120.902 317.648 122.288 317.648ZM126.932 323.048H124.718C124.34 323.822 123.638 324.434 122.378 324.434C120.866 324.434 119.696 323.444 119.552 321.806H127.13C127.184 321.464 127.202 321.14 127.202 320.798C127.202 317.882 125.204 315.92 122.378 315.92C119.444 315.92 117.428 317.918 117.428 321.032C117.428 324.146 119.534 326.162 122.378 326.162C124.808 326.162 126.374 324.776 126.932 323.048ZM136.619 323.228C136.511 319.646 130.913 320.762 130.913 318.764C130.913 318.098 131.489 317.648 132.587 317.648C133.703 317.648 134.369 318.242 134.441 319.106H136.493C136.385 317.126 134.909 315.92 132.659 315.92C130.319 315.92 128.843 317.198 128.843 318.782C128.843 322.418 134.603 321.302 134.603 323.246C134.603 323.93 133.973 324.434 132.785 324.434C131.651 324.434 130.877 323.768 130.805 322.958H128.681C128.771 324.758 130.445 326.162 132.821 326.162C135.161 326.162 136.619 324.902 136.619 323.228ZM139.16 323.246C139.16 325.262 140.258 326 142.022 326H143.642V324.29H142.382C141.518 324.29 141.23 323.984 141.23 323.246V317.756H143.642V316.082H141.23V313.616H139.16V316.082H137.99V317.756H139.16V323.246ZM145.534 326H147.586V316.082H145.534V326ZM146.578 314.768C147.298 314.768 147.874 314.192 147.874 313.454C147.874 312.716 147.298 312.14 146.578 312.14C145.84 312.14 145.264 312.716 145.264 313.454C145.264 314.192 145.84 314.768 146.578 314.768ZM157.318 326H159.352V320.15C159.352 317.378 157.606 315.92 155.284 315.92C154.096 315.92 152.998 316.406 152.332 317.216V316.082H150.28V326H152.332V320.456C152.332 318.638 153.322 317.702 154.834 317.702C156.328 317.702 157.318 318.638 157.318 320.456V326ZM161.285 320.996C161.285 324.056 163.355 326.162 165.929 326.162C167.585 326.162 168.773 325.37 169.403 324.524V326H171.473V316.082H169.403V317.522C168.791 316.712 167.639 315.92 165.965 315.92C163.355 315.92 161.285 317.936 161.285 320.996ZM169.403 321.032C169.403 323.174 167.945 324.38 166.397 324.38C164.867 324.38 163.391 323.138 163.391 320.996C163.391 318.854 164.867 317.702 166.397 317.702C167.945 317.702 169.403 318.908 169.403 321.032ZM174.492 323.246C174.492 325.262 175.59 326 177.354 326H178.974V324.29H177.714C176.85 324.29 176.562 323.984 176.562 323.246V317.756H178.974V316.082H176.562V313.616H174.492V316.082H173.322V317.756H174.492V323.246ZM180.866 326H182.918V316.082H180.866V326ZM181.91 314.768C182.63 314.768 183.206 314.192 183.206 313.454C183.206 312.716 182.63 312.14 181.91 312.14C181.172 312.14 180.596 312.716 180.596 313.454C180.596 314.192 181.172 314.768 181.91 314.768ZM195.062 321.032C195.062 317.918 192.83 315.92 190.004 315.92C187.178 315.92 184.946 317.918 184.946 321.032C184.946 324.146 187.088 326.162 189.914 326.162C192.758 326.162 195.062 324.146 195.062 321.032ZM187.034 321.032C187.034 318.782 188.42 317.702 189.968 317.702C191.498 317.702 192.956 318.782 192.956 321.032C192.956 323.282 191.444 324.38 189.914 324.38C188.366 324.38 187.034 323.282 187.034 321.032ZM204.128 326H206.162V320.15C206.162 317.378 204.416 315.92 202.094 315.92C200.906 315.92 199.808 316.406 199.142 317.216V316.082H197.09V326H199.142V320.456C199.142 318.638 200.132 317.702 201.644 317.702C203.138 317.702 204.128 318.638 204.128 320.456V326Z" fill="#343434"/>
<path d="M72.7071 140.707C73.0976 140.317 73.0976 139.683 72.7071 139.293L66.3431 132.929C65.9526 132.538 65.3195 132.538 64.9289 132.929C64.5384 133.319 64.5384 133.953 64.9289 134.343L70.5858 140L64.9289 145.657C64.5384 146.047 64.5384 146.681 64.9289 147.071C65.3195 147.462 65.9526 147.462 66.3431 147.071L72.7071 140.707ZM53 141H72V139H53V141Z" fill="black"/>
<path d="M72.7071 200.707C73.0976 200.317 73.0976 199.683 72.7071 199.293L66.3431 192.929C65.9526 192.538 65.3195 192.538 64.9289 192.929C64.5384 193.319 64.5384 193.953 64.9289 194.343L70.5858 200L64.9289 205.657C64.5384 206.047 64.5384 206.681 64.9289 207.071C65.3195 207.462 65.9526 207.462 66.3431 207.071L72.7071 200.707ZM53 201H72V199H53V201Z" fill="black"/>
<path d="M72.7071 260.707C73.0976 260.317 73.0976 259.683 72.7071 259.293L66.3431 252.929C65.9526 252.538 65.3195 252.538 64.9289 252.929C64.5384 253.319 64.5384 253.953 64.9289 254.343L70.5858 260L64.9289 265.657C64.5384 266.047 64.5384 266.681 64.9289 267.071C65.3195 267.462 65.9526 267.462 66.3431 267.071L72.7071 260.707ZM53 261H72V259H53V261Z" fill="black"/>
<path d="M72.7071 320.707C73.0976 320.317 73.0976 319.683 72.7071 319.293L66.3431 312.929C65.9526 312.538 65.3195 312.538 64.9289 312.929C64.5384 313.319 64.5384 313.953 64.9289 314.343L70.5858 320L64.9289 325.657C64.5384 326.047 64.5384 326.681 64.9289 327.071C65.3195 327.462 65.9526 327.462 66.3431 327.071L72.7071 320.707ZM53 321H72V319H53V321Z" fill="black"/>
<path d="M102.702 194.164H106.05V205H108.102V194.164H111.432V192.49H102.702V194.164ZM113.51 205H115.562V195.082H113.51V205ZM114.554 193.768C115.274 193.768 115.85 193.192 115.85 192.454C115.85 191.716 115.274 191.14 114.554 191.14C113.816 191.14 113.24 191.716 113.24 192.454C113.24 193.192 113.816 193.768 114.554 193.768ZM120.308 196.54V195.082H118.256V209.716H120.308V203.56C120.956 204.334 122.126 205.162 123.764 205.162C126.374 205.162 128.426 203.056 128.426 199.996C128.426 196.936 126.374 194.92 123.764 194.92C122.144 194.92 120.938 195.712 120.308 196.54ZM126.338 199.996C126.338 202.138 124.862 203.38 123.314 203.38C121.784 203.38 120.308 202.174 120.308 200.032C120.308 197.908 121.784 196.702 123.314 196.702C124.862 196.702 126.338 197.854 126.338 199.996ZM137.853 202.228C137.745 198.646 132.147 199.762 132.147 197.764C132.147 197.098 132.723 196.648 133.821 196.648C134.937 196.648 135.603 197.242 135.675 198.106H137.727C137.619 196.126 136.143 194.92 133.893 194.92C131.553 194.92 130.077 196.198 130.077 197.782C130.077 201.418 135.837 200.302 135.837 202.246C135.837 202.93 135.207 203.434 134.019 203.434C132.885 203.434 132.111 202.768 132.039 201.958H129.915C130.005 203.758 131.679 205.162 134.055 205.162C136.395 205.162 137.853 203.902 137.853 202.228Z" fill="#343434"/>
<defs>
<filter id="filter0_d_128_32" x="0" y="0" width="542" height="422" filterUnits="userSpaceOnUse" color-interpolation-filters="sRGB">
<feFlood flood-opacity="0" result="BackgroundImageFix"/>
<feColorMatrix in="SourceAlpha" type="matrix" values="0 0 0 0 0 0 0 0 0 0 0 0 0 0 0 0 0 0 127 0" result="hardAlpha"/>
<feOffset dy="4"/>
<feGaussianBlur stdDeviation="10"/>
<feComposite in2="hardAlpha" operator="out"/>
<feColorMatrix type="matrix" values="0 0 0 0 0 0 0 0 0 0 0 0 0 0 0 0 0 0 0.1 0"/>
<feBlend mode="normal" in2="BackgroundImageFix" result="effect1_dropShadow_128_32"/>
<feBlend mode="normal" in="SourceGraphic" in2="effect1_dropShadow_128_32" result="shape"/>
</filter>
</defs>
</svg>
